<?xml version="1.0" encoding="iso-8859-1"?>
<!-- Generator: Adobe Illustrator 24.1.1, SVG Export Plug-In . SVG Version: 6.00 Build 0)  -->
<svg version="1.1" id="Layer_1" xmlns="http://www.w3.org/2000/svg" xmlns:xlink="http://www.w3.org/1999/xlink" x="0px" y="0px"
	 viewBox="0 0 816 1000" style="enable-background:new 0 0 816 1000;" xml:space="preserve">
<g>
	<path d="M815.684,514.225v98.237l-187.534,50.25v-0.01c13.543-3.865,24.461-20.091,24.461-36.468v-38.391
		c0-16.376-10.918-26.752-24.461-23.359v-0.01L815.684,514.225z"/>
	<g>
		<path d="M664.359,230.59L27.988,401.105C12.706,405.2,0.316,396.13,0.316,380.848v-141.13c0-15.283,12.389-30.992,27.672-35.087
			L788.012,0.983c15.283-4.095,27.672,4.974,27.672,20.257v17.478C815.684,122.292,747.933,208.196,664.359,230.59z"/>
	</g>
	<g>
		<path d="M815.684,612.462v58.585c0,76.154-51.24,151.618-114.448,168.555l-585.86,156.981
			C51.83,1013.61,0.316,965.348,0.316,888.787v-87.319c0,16.278,10.95,26.537,24.461,22.917L815.684,612.462z"/>
	</g>
	<g>
		<path d="M815.684,454.68v59.545l-699.758,187.5C52.076,718.833,0.316,670.34,0.316,593.414v-86.657
			c0,16.278,10.95,26.537,24.461,22.917l677.255-181.47C764.8,331.385,815.684,379.056,815.684,454.68z"/>
	</g>
</g>
</svg>
