<svg xmlns="http://www.w3.org/2000/svg" viewBox="0 0 816 1000"><defs><style>.cls-1{fill:#ff3b36;}</style></defs><g id="Layer_5" data-name="Layer 5"><path class="cls-1" d="M664.359,230.59,27.988,401.105C12.706,405.2.316,396.13.316,380.848V239.717c0-15.282,12.39-30.991,27.672-35.086L788.012.983c15.282-4.095,27.672,4.975,27.672,20.257V38.718C815.684,122.292,747.933,208.2,664.359,230.59Z"/></g><g id="Layer_8" data-name="Layer 8"><path class="cls-1" d="M702.032,348.2,24.777,529.673C11.267,533.294.316,523.034.316,506.757v86.657c0,76.926,51.76,125.419,115.609,108.31l515-137.994c11.747-.693,20.682,9.251,20.682,24.109v38.627c0,15.67-9.939,31.2-22.634,36.024L24.777,824.384C11.267,828.005.316,817.746.316,801.468v87.319c0,76.561,51.514,124.823,115.06,107.8L701.236,839.6c63.208-16.937,114.448-92.4,114.448-168.555V454.68C815.684,379.056,764.8,331.385,702.032,348.2Z"/></g></svg>