<svg id="Layer_2" data-name="Layer 2" xmlns="http://www.w3.org/2000/svg" xmlns:xlink="http://www.w3.org/1999/xlink" viewBox="0 0 526 1000"><defs><style>.cls-1{fill:none;}.cls-2{fill:#ff3b36;}.cls-3{fill:url(#New_Pattern);}</style><pattern id="New_Pattern" data-name="New Pattern" width="40" height="40" patternTransform="translate(-26 15)" patternUnits="userSpaceOnUse" viewBox="0 0 40 40"><rect class="cls-1" width="40" height="40"/><circle class="cls-2" cx="30" cy="40" r="5"/><circle class="cls-2" cx="10" cy="40" r="5"/><circle class="cls-2" cx="40" cy="20" r="5"/><circle class="cls-2" cx="20" cy="20" r="5"/><circle class="cls-2" cy="20" r="5"/><circle class="cls-2" cx="30" r="5"/><circle class="cls-2" cx="10" r="5"/></pattern></defs><path class="cls-3" d="M689.1,87H293.9a96.249,96.249,0,0,0-83.355,48.125l-197.6,342.25a96.247,96.247,0,0,0,0,96.25l197.6,342.25A96.249,96.249,0,0,0,293.9,964H689.1a96.249,96.249,0,0,0,83.355-48.125l197.6-342.25a96.247,96.247,0,0,0,0-96.25l-197.6-342.25A96.249,96.249,0,0,0,689.1,87Z"/><path class="cls-2" d="M728.1,18H332.9a96.249,96.249,0,0,0-83.355,48.125l-197.6,342.25a96.247,96.247,0,0,0,0,96.25l197.6,342.25A96.249,96.249,0,0,0,332.9,895H728.1a96.249,96.249,0,0,0,83.355-48.125l197.6-342.25a96.247,96.247,0,0,0,0-96.25l-197.6-342.25A96.249,96.249,0,0,0,728.1,18Z"/></svg>