<svg id="Layer_1" data-name="Layer 1" xmlns="http://www.w3.org/2000/svg" viewBox="0 0 840.693 552.505"><defs><style>.cls-1{fill:#ff3b36;}</style></defs><path class="cls-1" d="M910.21,486.2q-1.29,1.83-2.71,3.61L555.72,930.24a71.316,71.316,0,0,1-111.44,0L92.5,489.81q-1.425-1.785-2.71-3.61c-38.39-54.37,41.69-113.58,83.23-61.57l82.96,103.86c.57.91,1.17,1.81,1.81,2.71q1.29,1.83,2.71,3.61L433.2,751.04l66.3,82.99,51.39-64.34a68.291,68.291,0,0,0,4.83-5.45L826.98,424.63C868.52,372.62,948.6,431.83,910.21,486.2Z" transform="translate(-79.653 -404.54)"/></svg>